<?xml version="1.0" standalone="no"?>
<!DOCTYPE svg PUBLIC "-//W3C//DTD SVG 20010904//EN"
 "http://www.w3.org/TR/2001/REC-SVG-20010904/DTD/svg10.dtd">
<svg version="1.0" xmlns="http://www.w3.org/2000/svg"
 width="491.000000pt" height="491.000000pt" viewBox="0 0 491.000000 491.000000"
 preserveAspectRatio="xMidYMid meet">
<metadata>
Created by potrace 1.14, written by Peter Selinger 2001-2017
</metadata>
<g transform="translate(0.000000,491.000000) scale(0.100000,-0.100000)"
fill="#000000" stroke="none">
<path d="M1101 4403 c-5 -27 -51 -223 -101 -438 -50 -214 -111 -475 -135 -580
-24 -104 -75 -325 -114 -490 -214 -918 -271 -1170 -268 -1178 1 -4 234 224
517 508 470 473 515 516 527 499 29 -40 155 -274 151 -283 -1 -5 -60 -76 -129
-158 -69 -81 -336 -398 -594 -703 -258 -305 -566 -669 -685 -809 -118 -140
-219 -261 -223 -268 -7 -11 301 -13 1742 -13 l1749 0 21 62 c11 35 142 448
291 918 149 470 334 1052 411 1294 77 241 139 442 137 445 -2 4 -244 -206
-538 -466 -294 -261 -560 -496 -591 -523 l-57 -50 -33 81 c-27 69 -30 85 -20
101 7 11 115 144 240 296 485 591 1435 1752 1464 1790 8 9 -368 12 -1871 12
l-1880 0 -11 -47z"/>
</g>
</svg>
